<svg id="noun_messages_1516437" xmlns="http://www.w3.org/2000/svg" width="27.15" height="27.15" viewBox="0 0 27.15 27.15">
  <defs>
    <style>
      .cls-1 {
        fill: #0faeae;
      }
    </style>
  </defs>
  <g id="Group_4409" data-name="Group 4409">
    <path id="Path_5331" data-name="Path 5331" class="cls-1" d="M14.03,4.7H3.848a.848.848,0,1,1,0-1.7H14.03a.848.848,0,0,1,0,1.7Z" transform="translate(2.091 2.091)"/>
    <path id="Path_5332" data-name="Path 5332" class="cls-1" d="M10.636,6.7H3.848a.848.848,0,0,1,0-1.7h6.787a.848.848,0,1,1,0,1.7Z" transform="translate(2.091 3.484)"/>
    <g id="Group_4408" data-name="Group 4408">
      <path id="Path_5333" data-name="Path 5333" class="cls-1" d="M.848,21.211a.861.861,0,0,1-.36-.08A.849.849,0,0,1,0,20.362V3.394A3.4,3.4,0,0,1,3.394,0H18.666a3.4,3.4,0,0,1,3.394,3.394V13.575a3.4,3.4,0,0,1-3.394,3.394H6.246L1.391,21.014A.839.839,0,0,1,.848,21.211ZM3.394,1.7a1.7,1.7,0,0,0-1.7,1.7V18.552L5.4,15.47a.84.84,0,0,1,.543-.2H18.666a1.7,1.7,0,0,0,1.7-1.7V3.394a1.7,1.7,0,0,0-1.7-1.7Z"/>
      <path id="Path_5334" data-name="Path 5334" class="cls-1" d="M23.514,24.362a.849.849,0,0,1-.529-.185l-4.011-3.209H7.394A3.4,3.4,0,0,1,4,17.575v-.848a.848.848,0,1,1,1.7,0v.848a1.7,1.7,0,0,0,1.7,1.7H19.272a.855.855,0,0,1,.529.185l2.864,2.292V7.394a1.7,1.7,0,0,0-1.7-1.7.848.848,0,1,1,0-1.7,3.4,3.4,0,0,1,3.394,3.394v16.12a.847.847,0,0,1-.48.764A.865.865,0,0,1,23.514,24.362Z" transform="translate(2.787 2.787)"/>
    </g>
  </g>
</svg>
