<svg xmlns="http://www.w3.org/2000/svg" width="30.919" height="26.541" viewBox="0 0 30.919 26.541">
  <defs>
    <style>
      .cls-1 {
        fill: #d6b92a;
      }
    </style>
  </defs>
  <g id="noun_strategy_1486348" transform="translate(-5.4 -11.8)">
    <g id="Group" transform="translate(5.4 11.8)">
      <path id="Compound_Path" data-name="Compound Path" class="cls-1" d="M35.861,27.62l-3.469-2.082a1.041,1.041,0,0,0-.52-.139H26.945V20.335h3.678a1.041,1.041,0,0,0,1.041-1.041V16.761A4.961,4.961,0,0,0,26.875,11.8H10.361A4.961,4.961,0,0,0,5.4,16.761V34.524a3.816,3.816,0,0,0,3.816,3.816H23.059a3.816,3.816,0,0,0,3.816-3.782V31.645h4.961a1.041,1.041,0,0,0,.52-.139l3.469-2.082a1.041,1.041,0,0,0,0-1.769ZM26.667,13.882a2.88,2.88,0,0,1,2.88,2.88v1.492H15.322V16.761a4.926,4.926,0,0,0-.937-2.88ZM24.794,34.524a1.735,1.735,0,0,1-1.735,1.735H9.216a1.735,1.735,0,0,1-1.735-1.735V16.761a2.9,2.9,0,1,1,5.794,0v2.533a1.041,1.041,0,0,0,1.041,1.041H24.9V25.4H16.5a3.122,3.122,0,1,0,0,6.245h8.326ZM16.5,29.563a1.041,1.041,0,1,1,0-2.082H17.2v2.082Zm15.057,0H19.277V27.482H31.559l1.735,1.041Z" transform="translate(-5.4 -11.8)"/>
    </g>
  </g>
</svg>
